<svg width="1458" height="470" viewBox="0 0 1458 470" fill="none" xmlns="http://www.w3.org/2000/svg">
<g clip-path="url(#clip0_444_317)">
<path fill-rule="evenodd" clip-rule="evenodd" d="M325.18 0.5L513.149 188.455C538.709 214.009 538.709 255.827 513.149 281.38L325.118 469.397L266.169 410.454L441.72 234.919L266.228 59.4438L325.18 0.5Z" fill="#FFB703"/>
<path fill-rule="evenodd" clip-rule="evenodd" d="M19.1698 188.452L207.142 0.5L266.091 59.4438L90.5997 234.919L266.149 410.454L207.2 469.397L19.1661 281.383C-6.38933 255.827 -6.38929 214.009 19.1698 188.452Z" fill="#219EBC"/>
<path fill-rule="evenodd" clip-rule="evenodd" d="M178.378 147.145C226.66 98.8676 305.661 98.8676 353.939 147.145C402.218 195.419 402.218 274.417 353.939 322.691L266.159 410.465L178.378 322.691C130.097 274.417 130.097 195.423 178.378 147.145ZM230.731 200.802C250.215 181.32 282.095 181.32 301.579 200.802C321.062 220.284 321.066 252.157 301.582 271.639C282.099 291.121 250.215 291.121 230.735 271.639C211.255 252.161 211.252 220.284 230.731 200.802Z" fill="#D92C29"/>
</g>
<path d="M664.92 151.02V319.5H623.88V151.02H664.92ZM776.261 184.14C791.941 184.14 804.421 189.26 813.701 199.5C823.141 209.58 827.861 223.5 827.861 241.26V319.5H787.061V246.78C787.061 237.82 784.741 230.86 780.101 225.9C775.461 220.94 769.221 218.46 761.381 218.46C753.541 218.46 747.301 220.94 742.661 225.9C738.021 230.86 735.701 237.82 735.701 246.78V319.5H694.661V185.58H735.701V203.34C739.861 197.42 745.461 192.78 752.501 189.42C759.541 185.9 767.461 184.14 776.261 184.14ZM931.02 284.7V319.5H910.14C895.26 319.5 883.66 315.9 875.34 308.7C867.02 301.34 862.86 289.42 862.86 272.94V219.66H846.54V185.58H862.86V152.94H903.9V185.58H930.78V219.66H903.9V273.42C903.9 277.42 904.86 280.3 906.78 282.06C908.7 283.82 911.9 284.7 916.38 284.7H931.02ZM1086.12 185.58V319.5H1045.08V301.26C1040.92 307.18 1035.24 311.98 1028.04 315.66C1021 319.18 1013.16 320.94 1004.52 320.94C994.28 320.94 985.24 318.7 977.4 314.22C969.56 309.58 963.48 302.94 959.16 294.3C954.84 285.66 952.68 275.5 952.68 263.82V185.58H993.48V258.3C993.48 267.26 995.8 274.22 1000.44 279.18C1005.08 284.14 1011.32 286.62 1019.16 286.62C1027.16 286.62 1033.48 284.14 1038.12 279.18C1042.76 274.22 1045.08 267.26 1045.08 258.3V185.58H1086.12ZM1136.24 171.66C1129.04 171.66 1123.12 169.58 1118.48 165.42C1114 161.1 1111.76 155.82 1111.76 149.58C1111.76 143.18 1114 137.9 1118.48 133.74C1123.12 129.42 1129.04 127.26 1136.24 127.26C1143.28 127.26 1149.04 129.42 1153.52 133.74C1158.16 137.9 1160.48 143.18 1160.48 149.58C1160.48 155.82 1158.16 161.1 1153.52 165.42C1149.04 169.58 1143.28 171.66 1136.24 171.66ZM1156.64 185.58V319.5H1115.6V185.58H1156.64ZM1261.02 284.7V319.5H1240.14C1225.26 319.5 1213.66 315.9 1205.34 308.7C1197.02 301.34 1192.86 289.42 1192.86 272.94V219.66H1176.54V185.58H1192.86V152.94H1233.9V185.58H1260.78V219.66H1233.9V273.42C1233.9 277.42 1234.86 280.3 1236.78 282.06C1238.7 283.82 1241.9 284.7 1246.38 284.7H1261.02ZM1275.72 252.3C1275.72 238.54 1278.28 226.46 1283.4 216.06C1288.68 205.66 1295.8 197.66 1304.76 192.06C1313.72 186.46 1323.72 183.66 1334.76 183.66C1344.2 183.66 1352.44 185.58 1359.48 189.42C1366.68 193.26 1372.2 198.3 1376.04 204.54V185.58H1417.08V319.5H1376.04V300.54C1372.04 306.78 1366.44 311.82 1359.24 315.66C1352.2 319.5 1343.96 321.42 1334.52 321.42C1323.64 321.42 1313.72 318.62 1304.76 313.02C1295.8 307.26 1288.68 299.18 1283.4 288.78C1278.28 278.22 1275.72 266.06 1275.72 252.3ZM1376.04 252.54C1376.04 242.3 1373.16 234.22 1367.4 228.3C1361.8 222.38 1354.92 219.42 1346.76 219.42C1338.6 219.42 1331.64 222.38 1325.88 228.3C1320.28 234.06 1317.48 242.06 1317.48 252.3C1317.48 262.54 1320.28 270.7 1325.88 276.78C1331.64 282.7 1338.6 285.66 1346.76 285.66C1354.92 285.66 1361.8 282.7 1367.4 276.78C1373.16 270.86 1376.04 262.78 1376.04 252.54Z" fill="black"/>
<defs>
<clipPath id="clip0_444_317">
<rect width="535" height="469" fill="white" transform="translate(0 0.5)"/>
</clipPath>
</defs>
</svg>
